<mxfile host="app.diagrams.net" modified="2023-06-28T06:51:45.192Z" agent="Mozilla/5.0 (X11; Ubuntu; Linux x86_64; rv:109.0) Gecko/20100101 Firefox/114.0" version="21.5.1" etag="AyRjGiLKjepeDDGDxRQ0" type="github">
  <diagram name="Page-1" id="E_8TI6_i0lPuQz47cUZt">
    <mxGraphModel>
      <root>
        <mxCell id="0" />
        <mxCell id="1" parent="0" />
      </root>
    </mxGraphModel>
  </diagram>
</mxfile>
